<svg width="24" height="24" viewBox="0 0 24 24" fill="none"
    xmlns="http://www.w3.org/2000/svg">
    <path fill-rule="evenodd" clip-rule="evenodd" d="M17.0022 18.0025V12C17.0023 11.4693 16.7916 10.9603 16.4163 10.585C16.041 10.2098 15.532 9.999 15.0013 9.99915H4.99717C4.46647 9.999 3.95747 10.2098 3.58221 10.585C3.20695 10.9603 2.99619 11.4693 2.99634 12V18.0025C2.99619 18.5332 3.20695 19.0422 3.58221 19.4174C3.95747 19.7927 4.46647 20.0035 4.99717 20.0033H15.0013C16.1063 20.0033 17.0022 19.1075 17.0022 18.0025Z" stroke="#817C8A" stroke-width="1.5" stroke-linecap="round" stroke-linejoin="round"/>
    <path d="M2.99634 14.0799H17.0022" stroke="#817C8A" stroke-width="1.5" stroke-linecap="round" stroke-linejoin="round"/>
    <path d="M6.19775 9.99919L7.40826 5.4773C7.5456 4.96483 7.88123 4.52807 8.34107 4.26343C8.80092 3.99878 9.34717 3.928 9.85928 4.06672L19.5233 6.65779C20.0358 6.79514 20.4725 7.13077 20.7372 7.59061C21.0018 8.05046 21.0726 8.59671 20.9339 9.10882L19.3832 14.9012C19.1073 15.9437 18.0522 16.5776 17.0023 16.3318" stroke="#817C8A" stroke-width="1.5" stroke-linecap="round" stroke-linejoin="round"/>
</svg>
