<svg width="23" height="21" viewBox="0 0 23 21" fill="none"
    xmlns="http://www.w3.org/2000/svg">
    <path d="M9.27766 8.95225V4.55848H3.31836V0.707153H19.971V4.61272H14.0117V8.95225H9.27766Z" fill="white"/>
    <path d="M11.5054 6.78229C17.4647 6.78229 22.2544 7.9759 22.2544 9.44049C22.2539 10.905 17.4643 12.0977 11.5054 12.0977C5.5464 12.0977 0.756883 10.905 0.756348 9.44049C0.756348 7.9759 5.54607 6.78229 11.5054 6.78229ZM11.5063 7.21588C5.26857 7.21588 2.03781 8.84381 1.64795 9.44049C2.03815 9.98293 5.26897 10.796 11.5063 10.796C17.7979 10.796 20.9724 9.98293 21.3638 9.44049C20.9739 8.89805 17.7441 7.2159 11.5063 7.21588Z" fill="white"/>
    <path d="M14.0113 10.3087V7.27102C13.2316 7.21678 12.3962 7.16254 11.5608 7.16254C10.7811 7.16254 10.057 7.16254 9.33301 7.21678V10.2544C10.0013 10.2544 10.7811 10.3087 11.5608 10.3087C12.3962 10.3629 13.2316 10.3629 14.0113 10.3087Z" fill="white"/>
    <path d="M11.5054 12.099C10.7256 12.099 10.0016 12.099 9.27759 12.0448V20.1271H13.9559V11.9905C13.1762 12.0448 12.3408 12.099 11.5054 12.099Z" fill="white"/>
</svg>
